<svg width="344" height="44" viewBox="0 0 344 44" fill="none" xmlns="http://www.w3.org/2000/svg">
<path d="M3.49521 36V8.11428H15.9564C21.1612 8.11428 24.4285 11.1726 24.4285 15.9595C24.4285 20.6894 21.1612 23.8427 15.9564 23.8427H6.93344V36H3.49521ZM15.5005 21.0124C18.8248 21.0124 20.9333 19.0748 20.9333 15.9595C20.9333 12.7872 18.8248 10.9256 15.5005 10.9256H6.93344V21.0124H15.5005ZM36.8517 36.3799C31.039 36.3799 27.4488 32.2199 27.4488 25.5903C27.4488 19.0368 31.039 14.9337 36.8517 14.9337C42.6644 14.9337 46.2546 19.0368 46.2546 25.5903C46.2546 32.2199 42.6644 36.3799 36.8517 36.3799ZM36.8517 33.7205C40.5749 33.7205 42.8734 30.6242 42.8734 25.5903C42.8734 20.6515 40.5749 17.5931 36.8517 17.5931C33.1095 17.5931 30.8301 20.6515 30.8301 25.5903C30.8301 30.6242 33.1095 33.7205 36.8517 33.7205ZM49.4269 15.2947H52.6941L57.4241 31.9919H57.557L62.211 15.2947H65.3833L70.0942 31.9919H70.2272L74.9001 15.2947H78.1294V15.7126L72.0128 36H68.4226L63.8446 19.7777H63.7117L59.1147 36H55.4865L49.4269 15.7126V15.2947ZM90.8945 36.3799C85.0819 36.3799 81.3587 32.1059 81.3587 25.6473C81.3587 19.2268 85.1958 14.9337 90.8945 14.9337C95.8904 14.9337 100.031 18.334 99.5946 26.2742H84.7399C84.9299 31.0421 87.4943 33.7205 90.8945 33.7205C93.7249 33.7205 95.6625 32.3718 96.4033 29.7124H99.6896C99.0247 33.2456 95.8904 36.3799 90.8945 36.3799ZM84.8729 23.6528H96.3273C96.2893 19.9866 94.1998 17.5741 90.8945 17.5741C87.9692 17.5741 85.4618 19.2838 84.8729 23.6528ZM105.103 36V15.2947H108.181V19.8156H108.333C109.225 16.1685 110.992 15.1617 113.423 15.1617H115.741V18.239H113.063C109.871 18.239 108.333 20.5185 108.333 26.0462V36H105.103ZM127.784 36.3799C121.972 36.3799 118.248 32.1059 118.248 25.6473C118.248 19.2268 122.086 14.9337 127.784 14.9337C132.78 14.9337 136.921 18.334 136.484 26.2742H121.63C121.82 31.0421 124.384 33.7205 127.784 33.7205C130.615 33.7205 132.552 32.3718 133.293 29.7124H136.579C135.914 33.2456 132.78 36.3799 127.784 36.3799ZM121.763 23.6528H133.217C133.179 19.9866 131.09 17.5741 127.784 17.5741C124.859 17.5741 122.351 19.2838 121.763 23.6528ZM149.363 36.3799C144.254 36.3799 140.815 32.1249 140.815 25.6093C140.815 19.1128 144.235 14.9147 149.344 14.9147C152.536 14.9147 154.948 16.7383 156.107 19.8346H156.24V8.11428H159.488V36H156.259V31.422H156.107C154.853 34.5563 152.593 36.3799 149.363 36.3799ZM144.254 25.6093C144.254 30.4912 146.59 33.6445 150.218 33.6445C153.884 33.6445 156.221 30.4912 156.221 25.6093C156.221 20.7464 153.884 17.6311 150.218 17.6311C146.59 17.6311 144.254 20.7464 144.254 25.6093ZM186.158 36.3799C182.929 36.3799 180.687 34.5563 179.434 31.479H179.263V36H176.033V8.11428H179.263V19.8346H179.396C180.573 16.7193 182.967 14.9147 186.158 14.9147C191.287 14.9147 194.687 19.1128 194.687 25.6093C194.687 32.1249 191.268 36.3799 186.158 36.3799ZM185.303 33.6445C188.912 33.6445 191.249 30.4722 191.249 25.6093C191.249 20.7654 188.931 17.6311 185.303 17.6311C181.637 17.6311 179.282 20.7464 179.282 25.6093C179.282 30.5102 181.637 33.6445 185.303 33.6445ZM198.163 42.8765V40.0461H203.083L204.736 35.6011L197.461 15.7316V15.2947H200.747L206.313 31.2321H206.465L212.03 15.2947H215.165V15.7316L205.971 40.9579C205.515 42.2306 204.66 42.8765 202.95 42.8765H198.163Z" fill="#1D1D1D"/>
<path fill-rule="evenodd" clip-rule="evenodd" d="M235.53 13.3997C235.53 15.585 236.452 16.5831 239.051 17.2034L239.047 17.2075L242.449 18.0331C247.454 19.2655 249.688 21.7301 249.688 26.0185C249.688 31.757 245.79 35.0472 239.469 35.0472C233.149 35.0472 229.558 32.1431 229.083 26.6388H234.555C234.903 29.4033 236.629 30.804 239.469 30.804C242.31 30.804 244.146 29.2636 244.146 26.8811C244.146 24.6342 243.01 23.5046 240.104 22.8515L236.67 22.0628C233.62 21.3316 229.988 19.3517 229.988 14.0405C229.988 9.02086 233.829 5.64844 239.543 5.64844C245.691 5.64844 248.876 8.09663 249.269 13.1244H243.572C243.302 10.9022 241.957 9.81775 239.469 9.81775C237.149 9.81775 235.53 11.2144 235.53 13.3997ZM315.499 20.5387C315.093 18.4561 313.748 17.4866 311.289 17.4866H310.932C307.703 17.4866 305.612 20.0416 305.612 23.9891C305.612 27.9366 307.698 30.4916 310.932 30.4916H311.289C313.748 30.4916 315.089 29.5222 315.499 27.4396H320.876C320.38 32.3442 316.921 35.0388 311.113 35.0388C304.96 35.0388 300.665 30.4957 300.665 23.9891C300.665 17.4825 304.96 12.9394 311.113 12.9394C316.921 12.9394 320.38 15.6382 320.876 20.5387H315.499ZM294.201 27.8177V17.3513H299.899V12.915H296.197C295.095 12.915 294.197 12.0236 294.197 10.9309V5.64844H288.774V12.9191H284.261C282.359 12.9191 280.646 14.061 279.9 15.8314L275.211 26.9674L270.21 15.7411C269.448 14.024 267.751 12.915 265.89 12.915H259.398C258.295 12.915 257.397 12.0236 257.397 10.9309V5.64844H251.974V29.395C251.974 33.0879 253.921 35.0431 257.602 35.0431H262.755V30.5H260.07C257.947 30.5 257.397 29.9496 257.397 27.8177V17.3513H264.009C264.62 17.3513 265.07 17.6018 265.284 18.0496L272.58 33.4617V34.5944C272.58 36.7674 271.981 36.8619 269.907 36.8619H263.095V41.4871H272.104C275.576 41.4871 277.732 39.0102 277.732 35.0257L277.752 33.1988L284.749 18.0619C284.962 17.6018 285.417 17.3513 286.032 17.3513H288.77V29.3909C288.77 33.0838 290.717 35.039 294.398 35.039H299.706V30.4959H296.865C294.742 30.4959 294.193 29.9455 294.193 27.8136L294.201 27.8177ZM328.523 15.8396L328.888 15.3919H328.884C330.15 13.8433 331.437 12.9437 334.294 12.9437C339.123 12.9437 341.898 15.9834 341.898 21.2906V35.0431H336.475V21.9683C336.475 20.3252 336.008 19.019 335.122 18.1851C334.409 17.5115 333.45 17.1952 332.351 17.2609C329.74 17.4252 328.523 19.4585 328.523 23.6689V35.0431H323.1V5.64844H328.523V15.8396Z" fill="black"/>
</svg>
